<svg xmlns="http://www.w3.org/2000/svg" xmlns:xlink="http://www.w3.org/1999/xlink" width="100%" height="100%" version="1.1" viewBox="0 0 4267 2084" xml:space="preserve" style="fill-rule:evenodd;clip-rule:evenodd;stroke-linejoin:round;stroke-miterlimit:2"><g id="Layer-1" transform="matrix(4.16667,0,0,4.16667,0,0)"><rect width="1024" height="500" x="0" y="0" style="fill:#fff"/><g><g><text x="409.193" y="320.306" style="font-family:'LucidaGrande','Lucida Grande',sans-serif;font-weight:500;font-size:209.557px;fill:#2196f3" transform="matrix(1,0,0,1,-7.21649,0) matrix(1,0,0,1,0,9.19912)">T</text><text x="522.651" y="320.306" style="font-family:'LucidaGrande','Lucida Grande',sans-serif;font-weight:500;font-size:209.557px;fill:#2196f3" transform="matrix(1,0,0,1,-7.21649,0) matrix(1,0,0,1,0,9.19912)">a</text><text x="636.679" y="320.306" style="font-family:'LucidaGrande','Lucida Grande',sans-serif;font-weight:500;font-size:209.557px;fill:#2196f3" transform="matrix(1,0,0,1,-7.21649,0) matrix(1,0,0,1,0,9.19912)">s</text><text x="744.804" y="320.306" style="font-family:'LucidaGrande','Lucida Grande',sans-serif;font-weight:500;font-size:209.557px;fill:#2196f3" transform="matrix(1,0,0,1,-7.21649,0) matrix(1,0,0,1,0,9.19912)">k</text><text x="851.034" y="320.306" style="font-family:'LucidaGrande','Lucida Grande',sans-serif;font-weight:500;font-size:209.557px;fill:#2196f3" transform="matrix(1,0,0,1,-7.21649,0) matrix(1,0,0,1,0,9.19912)">s</text></g><g><g transform="matrix(1,0,0,1,-7.21649,0) matrix(1,0,0,1,96.6328,112.505) matrix(5.7286,0,0,5.7286,0.00591818,0.00845455)"><rect width="48" height="48" x="0" y="0" style="fill:none;fill-rule:nonzero"/><clipPath id="_clip1"><rect width="48" height="48" x="0" y="0" clip-rule="nonzero"/></clipPath><g clip-path="url(#_clip1)"><g transform="matrix(1.75152,0,0,1.75152,-17.5374,-19.7413)"><circle cx="23.71" cy="24.95" r="13.694" style="fill:#2196f3"/><clipPath id="_clip2"><circle cx="23.71" cy="24.95" r="13.694"/></clipPath><g clip-path="url(#_clip2)"><g><path d="M18,32.34L9.66,24L6.83,26.83L48,68L72,44L39.17,11.17L18,32.34Z" style="fill-opacity:.15;fill-rule:nonzero" transform="matrix(0.571521,0,0,0.571521,9.9986,11.2509)"/></g></g></g></g></g><g><path d="M18,32.34L9.66,24L6.83,26.83L18,38L42,14L39.17,11.17L18,32.34Z" style="fill:#fff;fill-rule:nonzero" transform="matrix(1,0,0,1,-7.21649,0) matrix(1,0,0,1,96.6328,112.505) matrix(5.7345,0,0,5.7345,-0.135489,-0.193556)"/></g></g></g></g></svg>